<?xml version="1.0" standalone="no"?>
<!DOCTYPE svg PUBLIC "-//W3C//DTD SVG 20010904//EN"
 "http://www.w3.org/TR/2001/REC-SVG-20010904/DTD/svg10.dtd">
<svg version="1.0" xmlns="http://www.w3.org/2000/svg"
 width="16.000000pt" height="16.000000pt" viewBox="0 0 16.000000 16.000000"
 preserveAspectRatio="xMidYMid meet">
<metadata>
Created by potrace 1.11, written by Peter Selinger 2001-2013
</metadata>
<g transform="translate(0.000000,16.000000) scale(0.006154,-0.006154)"
fill="#000000" stroke="none">
<path d="M1100 2575 c-277 -47 -504 -162 -699 -353 -211 -207 -329 -436 -379
-734 -8 -52 -8 -317 0 -373 30 -194 101 -376 210 -540 67 -100 240 -275 338
-340 144 -96 304 -163 478 -201 105 -23 340 -27 457 -8 420 68 786 345 965
729 79 171 112 317 116 515 3 125 -1 180 -20 285 -41 225 -172 470 -342 641
-108 108 -124 122 -228 189 -136 88 -301 156 -443 181 -13 2 -35 7 -50 10 -58
12 -329 12 -403 -1z m376 -384 c276 -56 511 -237 639 -490 122 -243 121 -558
-3 -806 -62 -125 -190 -273 -292 -339 -25 -16 -56 -37 -70 -46 -138 -90 -417
-140 -595 -105 -131 25 -194 47 -295 102 -85 46 -131 82 -210 163 -420 426
-309 1144 221 1429 85 46 210 89 283 97 28 4 52 8 54 9 8 7 221 -4 268 -14z"/>
</g>
</svg>
